<?xml version="1.0" encoding="UTF-8"?>
<svg width="122px" height="47px" viewBox="0 0 122 47" version="1.1" xmlns="http://www.w3.org/2000/svg" xmlns:xlink="http://www.w3.org/1999/xlink" style="background: #FFFFFF;">
    <!-- Generator: Sketch 49 (51002) - http://www.bohemiancoding.com/sketch -->
    <title>Logo</title>
    <desc>Created with Sketch.</desc>
    <defs></defs>
    <g id="Logo" stroke="none" stroke-width="1" fill="none" fill-rule="evenodd">
        <path d="M9,35.6100982 L16.0877531,31.0322581 C17.4040501,32.7489481 18.8722276,33.941094 20.7454195,33.941094 C22.719865,33.941094 24.1880424,32.6535764 24.1880424,30.2692847 L24.1880424,8 L33.9590164,8 L33.9590164,30.4600281 C33.9590164,38.2805049 28.6432015,42 21.4541948,42 C16.2396336,42 12.0882353,39.9018233 9,35.6100982 Z M36.9459981,41.3800842 L49.3495661,8 L60.2343298,8 L72.587271,41.3800842 L62.1075217,41.3800842 L60.4874638,36.4207574 L49.0458052,36.4207574 L47.4763742,41.3800842 L36.9459981,41.3800842 Z M54.7160077,18.6816269 L51.222758,29.601683 L58.3105111,29.601683 L54.8172613,18.6816269 L54.7160077,18.6816269 Z M75.8273867,41.3800842 L75.8273867,8 L85.5983607,8 L94.9643202,20.398317 L104.380906,8 L114,8 L114,41.3800842 L104.836548,41.3800842 L104.836548,20.684432 L94.9643202,33.368864 L85.0920926,20.684432 L85.0920926,41.3800842 L75.8273867,41.3800842 Z" id="JAM-Copy" fill="#FFE7B7"></path>
        <path d="M5,33.6100982 L12.0877531,29.0322581 C13.4040501,30.7489481 14.8722276,31.941094 16.7454195,31.941094 C18.719865,31.941094 20.1880424,30.6535764 20.1880424,28.2692847 L20.1880424,6 L29.9590164,6 L29.9590164,28.4600281 C29.9590164,36.2805049 24.6432015,40 17.4541948,40 C12.2396336,40 8.08823529,37.9018233 5,33.6100982 Z M32.9459981,39.3800842 L45.3495661,6 L56.2343298,6 L68.587271,39.3800842 L58.1075217,39.3800842 L56.4874638,34.4207574 L45.0458052,34.4207574 L43.4763742,39.3800842 L32.9459981,39.3800842 Z M50.7160077,16.6816269 L47.222758,27.601683 L54.3105111,27.601683 L50.8172613,16.6816269 L50.7160077,16.6816269 Z M71.8273867,39.3800842 L71.8273867,6 L81.5983607,6 L90.9643202,18.398317 L100.380906,6 L110,6 L110,39.3800842 L100.836548,39.3800842 L100.836548,18.684432 L90.9643202,31.368864 L81.0920926,18.684432 L81.0920926,39.3800842 L71.8273867,39.3800842 Z" id="JAM" fill="#F5C25A"></path>
    </g>
</svg>