<?xml version="1.0" standalone="no"?>
<!DOCTYPE svg PUBLIC "-//W3C//DTD SVG 20010904//EN"
 "http://www.w3.org/TR/2001/REC-SVG-20010904/DTD/svg10.dtd">
<svg version="1.0" xmlns="http://www.w3.org/2000/svg"
 width="528.000000pt" height="528.000000pt" viewBox="0 0 528.000000 528.000000"
 preserveAspectRatio="xMidYMid meet">
<metadata>
Created by potrace 1.14, written by Peter Selinger 2001-2017
</metadata>
<g transform="translate(0.000000,528.000000) scale(0.100000,-0.100000)"
fill="#000000" stroke="none">
<path d="M2708 3123 c-3 -1144 1 -1076 -66 -1160 -17 -22 -54 -52 -84 -69 -49
-27 -61 -29 -153 -29 -92 0 -105 3 -169 33 -52 25 -91 54 -159 122 -49 50 -91
90 -93 90 -1 0 -126 -79 -276 -176 -150 -97 -290 -188 -311 -201 l-38 -24 33
-46 c59 -83 220 -237 315 -300 216 -144 416 -207 693 -219 373 -17 679 77 890
273 126 117 209 264 262 464 l22 84 3 1098 4 1097 -435 0 -436 0 -2 -1037z"/>
</g>
</svg>
